<?xml version="1.0" encoding="UTF-8"?>
<svg xmlns="http://www.w3.org/2000/svg" xmlns:xlink="http://www.w3.org/1999/xlink" width="75px" height="75px" viewBox="0 0 75 75" version="1.1">
<g id="surface1">
<path style=" stroke:none;fill-rule:nonzero;fill:rgb(92.941176%,2.745098%,13.333333%);fill-opacity:1;" d="M 35.488281 2.859375 L 25.207031 12.378906 C 22.398438 14.941406 20.46875 19.121094 19.902344 23.878906 C 19.402344 27.828125 19.835938 31.90625 21.132812 35.453125 C 20.246094 37.390625 19.652344 39.578125 19.386719 41.871094 C 18.800781 46.699219 19.566406 51.671875 21.519531 55.667969 C 25.550781 64.171875 33.425781 66.652344 39.511719 61.335938 L 49.792969 51.816406 C 52.59375 49.25 54.515625 45.070312 55.078125 40.320312 C 55.574219 36.378906 55.140625 32.308594 53.847656 28.769531 C 56.578125 22.527344 56.433594 14.5 53.480469 8.476562 C 49.453125 -0.0429688 41.5625 -2.507812 35.488281 2.859375 Z M 34.460938 56.496094 C 31.15625 57.75 27.664062 55.859375 25.722656 51.765625 C 24.527344 49.359375 24.089844 46.390625 24.4375 43.449219 L 24.640625 42.03125 L 24.824219 41.148438 L 25.375 41.683594 C 26.585938 43.019531 27.945312 43.984375 29.394531 44.625 L 29.761719 44.8125 L 29.722656 45.347656 C 29.6875 46.097656 29.835938 46.925781 30.128906 47.566406 C 30.734375 48.824219 31.78125 49.4375 32.789062 49.039062 C 33.011719 48.929688 33.230469 48.824219 33.414062 48.664062 L 43.660156 39.144531 C 44.171875 38.664062 44.503906 37.941406 44.632812 37.085938 C 44.742188 36.203125 44.597656 35.292969 44.265625 34.570312 C 43.660156 33.34375 42.613281 32.78125 41.601562 33.15625 C 41.382812 33.261719 41.144531 33.394531 40.960938 33.554688 L 37.085938 37.140625 C 33.417969 40.3125 28.691406 38.820312 26.253906 33.714844 C 25.074219 31.3125 24.609375 28.3125 24.96875 25.402344 C 25.324219 22.515625 26.503906 19.988281 28.21875 18.449219 L 38.445312 8.929688 C 39.089844 8.34375 39.785156 7.914062 40.539062 7.59375 C 43.84375 6.335938 47.332031 8.234375 49.277344 12.300781 C 50.660156 15.125 51.046875 18.730469 50.324219 22.03125 L 50.140625 22.914062 L 49.609375 22.378906 C 48.382812 21.078125 47.019531 20.085938 45.570312 19.4375 L 45.203125 19.277344 L 45.238281 18.742188 C 45.277344 17.96875 45.128906 17.140625 44.835938 16.496094 C 44.230469 15.242188 43.183594 14.707031 42.171875 15.082031 C 41.953125 15.1875 41.730469 15.292969 41.546875 15.453125 L 31.285156 25.054688 C 30.769531 25.5625 30.441406 26.257812 30.332031 27.140625 C 30.21875 27.996094 30.367188 28.929688 30.699219 29.625 C 31.285156 30.882812 32.351562 31.417969 33.339844 31.042969 C 33.582031 30.9375 33.800781 30.828125 33.984375 30.667969 L 37.894531 27.03125 C 38.539062 26.417969 39.253906 25.960938 39.988281 25.667969 C 43.3125 24.410156 46.78125 26.308594 48.726562 30.402344 C 49.921875 32.808594 50.378906 35.777344 50.050781 38.691406 C 49.703125 41.566406 48.535156 44.09375 46.835938 45.640625 L 36.589844 55.132812 C 35.925781 55.71875 35.207031 56.179688 34.460938 56.496094 Z M 34.460938 56.496094 "/>
<path style="fill:none;stroke-width:40;stroke-linecap:butt;stroke-linejoin:miter;stroke:rgb(92.941176%,2.745098%,13.333333%);stroke-opacity:1;stroke-miterlimit:4;" d="M 757.000521 187.496719 C 757.000521 227.526406 724.533281 259.988437 684.491771 259.988437 C 644.45026 259.988437 611.983021 227.526406 611.983021 187.496719 C 611.983021 147.467031 644.45026 115.005 684.491771 115.005 C 724.533281 115.005 757.000521 147.467031 757.000521 187.496719 Z M 757.000521 187.496719 " transform="matrix(0.0917993,0,0,0.13369,3.671971,0)"/>
<path style="fill:none;stroke-width:40;stroke-linecap:butt;stroke-linejoin:miter;stroke:rgb(92.941176%,2.745098%,13.333333%);stroke-opacity:1;stroke-miterlimit:4;" d="M 125.016979 311.501094 C 125.016979 351.530781 92.54974 383.992812 52.508229 383.992812 C 12.466719 383.992812 -20.000521 351.530781 -20.000521 311.501094 C -20.000521 271.471406 12.466719 239.009375 52.508229 239.009375 C 92.54974 239.009375 125.016979 271.471406 125.016979 311.501094 Z M 125.016979 311.501094 " transform="matrix(0.0917993,0,0,0.13369,3.671971,0)"/>
<path style=" stroke:none;fill-rule:evenodd;fill:rgb(92.941176%,2.745098%,13.333333%);fill-opacity:1;" d="M 21.527344 68.183594 L 53.472656 68.183594 C 54.765625 68.183594 55.8125 69.707031 55.8125 71.589844 C 55.8125 73.472656 54.765625 75 53.472656 75 L 21.527344 75 C 20.234375 75 19.1875 73.472656 19.1875 71.589844 C 19.1875 69.707031 20.234375 68.183594 21.527344 68.183594 Z M 21.527344 68.183594 "/>
</g>
</svg>
